<svg width="48" height="48" viewBox="0 0 48 48" fill="none" xmlns="http://www.w3.org/2000/svg">
<path d="M27.8696 47.6875C27.6697 47.7201 27.469 47.7501 27.2676 47.7776C27.469 47.7501 27.6697 47.7201 27.8696 47.6875Z" fill="#5F5F5F"/>
<path d="M28.3497 47.6055C28.2542 47.623 28.1586 47.6392 28.063 47.6556C28.1586 47.6392 28.2542 47.623 28.3497 47.6055Z" fill="#5F5F5F"/>
<path d="M26.7316 47.8442C26.4976 47.8706 26.2621 47.894 26.0259 47.9138C26.2621 47.894 26.4976 47.8706 26.7316 47.8442Z" fill="#5F5F5F"/>
<path d="M27.1929 47.7881C27.0804 47.8031 26.9673 47.817 26.8545 47.8302C26.9673 47.817 27.0804 47.8031 27.1929 47.7881Z" fill="#5F5F5F"/>
<path d="M29.0029 47.4761C28.9187 47.494 28.8341 47.512 28.7495 47.5292C28.8341 47.512 28.9187 47.494 29.0029 47.4761Z" fill="#5F5F5F"/>
<path d="M30.6248 47.0732C30.5566 47.0927 30.4885 47.111 30.4204 47.13C30.4885 47.111 30.5566 47.0927 30.6248 47.0732Z" fill="#5F5F5F"/>
<path d="M30.1343 47.207C30.0603 47.2264 29.986 47.2462 29.9116 47.2649C29.986 47.2462 30.0603 47.2268 30.1343 47.207Z" fill="#5F5F5F"/>
<path d="M29.4929 47.3677C29.4146 47.386 29.3354 47.4032 29.2563 47.4208C29.3354 47.4032 29.4146 47.386 29.4929 47.3677Z" fill="#5F5F5F"/>
<path d="M26.0181 47.9146C25.8917 47.9252 25.7654 47.9347 25.6387 47.9431C25.7654 47.9347 25.8917 47.9252 26.0181 47.9146Z" fill="#5F5F5F"/>
<path d="M48 24C48 10.7472 37.2528 0 24 0C10.7472 0 0 10.7472 0 24C0 37.2528 10.7472 48 24 48C24.141 48 24.2812 47.9971 24.4219 47.9945V29.3115H19.2656V23.3024H24.4219V18.8804C24.4219 13.752 27.5526 10.9607 32.1273 10.9607C34.318 10.9607 36.201 11.124 36.75 11.1969V16.5568H33.5955C31.1067 16.5568 30.6248 17.7396 30.6248 19.4751V23.3024H36.5757L35.8 29.3115H30.6248V47.0728C40.6564 44.1969 48 34.9548 48 24Z" fill="#5F5F5F"/>
<path d="M25.5857 47.9463C25.3359 47.9624 25.0851 47.9752 24.8335 47.9836C25.0851 47.9752 25.3359 47.9624 25.5857 47.9463Z" fill="#5F5F5F"/>
<path d="M24.8208 47.9849C24.6882 47.9893 24.5553 47.9926 24.4224 47.9948C24.5553 47.9926 24.6882 47.9893 24.8208 47.9849Z" fill="#5F5F5F"/>
</svg>
