<svg width="48" height="48" viewBox="0 0 48 48" fill="none" xmlns="http://www.w3.org/2000/svg">
<path d="M21.0107 28.4961L28.8176 23.9998L21.0107 19.5034V28.4961Z" fill="#5F5F5F"/>
<path d="M24 0C10.7472 0 0 10.7472 0 24C0 37.2528 10.7472 48 24 48C37.2528 48 48 37.2528 48 24C48 10.7472 37.2528 0 24 0ZM38.9963 24.0245C38.9963 24.0245 38.9963 28.8918 38.3789 31.2389C38.0328 32.5236 37.0199 33.5365 35.7352 33.8822C33.3882 34.5 24 34.5 24 34.5C24 34.5 14.6364 34.5 12.2648 33.8577C10.9801 33.512 9.96716 32.4987 9.62109 31.214C9.0033 28.8918 9.0033 24 9.0033 24C9.0033 24 9.0033 19.1331 9.62109 16.786C9.9668 15.5013 11.0046 14.4635 12.2648 14.1178C14.6118 13.5 24 13.5 24 13.5C24 13.5 33.3882 13.5 35.7352 14.1423C37.0199 14.488 38.0328 15.5013 38.3789 16.786C39.0212 19.1331 38.9963 24.0245 38.9963 24.0245Z" fill="#5F5F5F"/>
</svg>
