<svg width="174" height="50" viewBox="0 0 174 50" fill="none" xmlns="http://www.w3.org/2000/svg">
<path d="M36.2069 30.5961C34.8334 28.1122 34.1029 25.2484 34.1029 22.3553C34.1029 17.7382 35.9147 13.5593 38.8077 10.6078V0H26.7095L19.4915 24.2256H19.4039L12.0982 0H0V36.7913H8.64991L8.35769 9.23436L8.44535 9.1467L16.3063 36.7913H22.5307L30.3624 9.1467L30.45 9.23436L30.1578 36.7913H38.8077V34.0736C37.8141 33.0508 36.9375 31.8819 36.2069 30.5961Z" fill="#EC1C24"/>
<path d="M58.1531 8.82525V11.7475C57.4518 10.7247 56.5459 9.84804 55.3477 9.20514C53.5359 8.18235 51.2273 7.8609 49.0649 7.8609C41.73 7.8609 35.7686 14.3483 35.7686 22.3261C35.7686 25.0438 36.4699 27.6154 37.668 29.7779C40.0058 33.986 44.2431 36.7913 49.0649 36.7913C51.8995 36.7913 54.9679 36.1485 56.7504 34.512C57.2764 34.0152 57.744 33.46 58.1531 32.8463V36.7913H66.4231V8.82525H58.1531ZM51.1397 29.2227C47.2823 29.2227 44.1555 26.1251 44.1555 22.3261C44.1555 18.5272 47.2823 15.4296 51.1397 15.4296C54.9971 15.4296 58.1239 18.5272 58.1239 22.3261C58.1239 26.1251 54.9971 29.2227 51.1397 29.2227Z" fill="#77787B"/>
<path d="M110.666 8.82525V11.7475C109.965 10.7247 109.059 9.84804 107.861 9.20514C106.049 8.18235 103.741 7.8609 101.578 7.8609C94.2432 7.8609 88.2817 14.3483 88.2817 22.3261C88.2817 25.0438 88.9831 27.6154 90.1812 29.7779C92.519 33.986 96.7563 36.7913 101.578 36.7913C104.413 36.7913 107.481 36.1485 109.264 34.512C109.79 34.0152 110.257 33.46 110.666 32.8463V36.7913H118.936V8.82525H110.666ZM103.653 29.2227C99.7955 29.2227 96.6686 26.1251 96.6686 22.3261C96.6686 18.5272 99.7955 15.4296 103.653 15.4296C107.51 15.4296 110.637 18.5272 110.637 22.3261C110.637 26.1251 107.51 29.2227 103.653 29.2227Z" fill="#77787B"/>
<path d="M169.404 32.7002C166.599 35.4471 163.121 36.8206 158.942 36.8206C154.763 36.8206 151.286 35.4471 148.51 32.7002C145.704 29.9532 144.302 26.505 144.302 22.3553C144.302 18.1765 145.704 14.7282 148.51 11.9813C151.286 9.23437 154.763 7.8609 158.942 7.8609C163.121 7.8609 166.599 9.23437 169.404 11.9813C172.209 14.7282 173.612 18.1765 173.612 22.3553C173.641 26.505 172.209 29.9532 169.404 32.7002ZM163.647 17.5336C162.391 16.1601 160.813 15.488 158.942 15.488C157.101 15.488 155.523 16.1601 154.267 17.5336C153.039 18.8486 152.426 20.4559 152.426 22.3553C152.426 24.2256 153.039 25.8328 154.267 27.1771C155.523 28.5213 157.072 29.2227 158.942 29.2227C160.813 29.2227 162.361 28.5506 163.647 27.1771C164.875 25.8328 165.488 24.2256 165.488 22.3553C165.488 20.4559 164.875 18.8778 163.647 17.5336Z" fill="#77787B"/>
<path d="M142.636 22.3553C142.636 18.9363 143.513 15.8971 145.237 13.3255C145.003 12.8288 144.74 12.3612 144.448 11.9229C144.419 11.8644 144.36 11.806 144.331 11.7475L144.302 11.7183C143.922 11.1631 143.483 10.6955 142.987 10.2572C141.233 8.70836 138.895 7.8609 136.324 7.8609C136.265 7.8609 136.178 7.8609 136.119 7.8609C134.833 7.8609 133.548 8.00701 132.408 8.41613C132.379 8.41613 132.35 8.44535 132.32 8.44535C132.174 8.5038 132.028 8.56225 131.882 8.62069C131.794 8.64991 131.707 8.70836 131.619 8.73758C131.531 8.79603 131.414 8.82525 131.327 8.88369C131.268 8.91292 131.21 8.94214 131.151 9.00059C130.479 9.38048 129.895 9.84804 129.369 10.4325C129.223 10.5786 129.106 10.7247 128.989 10.9001C128.784 11.1631 128.58 11.4553 128.375 11.7475H128.288V8.79603H120.602V36.7913H128.872V23.2613V21.391C128.872 19.55 129.194 18.1765 129.807 17.2706C130.538 16.1601 131.824 15.6341 133.606 15.6341C135.301 15.6341 136.499 16.1894 137.142 17.329C137.668 18.2057 137.931 19.55 137.931 21.3326V26.768V36.8206H146.201V33.3723V32.5833C143.834 29.7487 142.636 26.3296 142.636 22.3553Z" fill="#77787B"/>
<path d="M88.7492 30.5961C88.1647 29.5441 87.6971 28.4337 87.3465 27.2648L83.4891 21.3326L87.6679 16.4231C88.8076 13.2963 90.8532 10.6371 93.4248 8.79602H84.3365L76.388 19.1701H76.3003V0H68.0303V36.7913H76.3003V23.5243H76.388L84.2196 36.7913H93.5709L92.4604 35.0964C90.9993 33.8691 89.7135 32.3495 88.7492 30.5961Z" fill="#77787B"/>
<path d="M2.71744 43.3665C3.18501 43.3665 3.62335 43.4541 4.03246 43.6002C4.44158 43.7464 4.76303 43.9801 5.05526 44.2724C5.34748 44.5646 5.55204 44.9153 5.72738 45.2952C5.87349 45.7043 5.96116 46.1426 5.96116 46.6394C5.96116 47.107 5.87349 47.5745 5.72738 47.9544C5.55204 48.3635 5.34748 48.7142 5.05526 49.0064C4.76303 49.2987 4.41236 49.5324 4.00324 49.6786C3.59412 49.8247 3.15578 49.9123 2.659 49.9123H0.0874023V43.3372H2.71744V43.3665ZM1.49009 48.685H2.74667C3.00967 48.685 3.24345 48.6265 3.44801 48.5389C3.65257 48.4512 3.85713 48.3051 4.00324 48.1298C4.14935 47.9544 4.29547 47.7499 4.38314 47.4869C4.4708 47.2238 4.52925 46.9608 4.52925 46.6686C4.52925 46.3764 4.4708 46.0842 4.38314 45.8504C4.29547 45.5874 4.14935 45.3828 4.00324 45.2075C3.85713 45.0321 3.65257 44.886 3.41879 44.7984C3.18501 44.7107 2.95122 44.6523 2.68822 44.6523H1.49009V48.685Z" fill="#231F20"/>
<path d="M12.244 43.308C12.7115 43.308 13.1499 43.3957 13.559 43.571C13.9681 43.7464 14.3188 43.9801 14.611 44.2724C14.9032 44.5646 15.137 44.9153 15.3124 45.3244C15.4877 45.7335 15.5754 46.1718 15.5754 46.6394C15.5754 47.107 15.4877 47.5453 15.3124 47.9544C15.137 48.3635 14.9032 48.7142 14.611 49.0064C14.3188 49.2987 13.9681 49.5324 13.559 49.7078C13.1499 49.8831 12.7115 49.9708 12.244 49.9708C11.7764 49.9708 11.3381 49.8831 10.929 49.7078C10.5198 49.5324 10.1692 49.2987 9.87695 49.0064C9.58472 48.7142 9.35094 48.3635 9.1756 47.9544C9.00027 47.5453 8.9126 47.107 8.9126 46.6394C8.9126 46.1718 9.00027 45.7335 9.1756 45.3244C9.35094 44.9153 9.58472 44.5646 9.87695 44.2724C10.1692 43.9801 10.5198 43.7464 10.929 43.571C11.3381 43.3957 11.7764 43.308 12.244 43.308ZM12.2732 44.5938C12.0102 44.5938 11.7764 44.6523 11.5426 44.7399C11.3089 44.8568 11.1043 44.9737 10.929 45.1783C10.7536 45.3828 10.6075 45.5874 10.5198 45.8212C10.4322 46.0549 10.3737 46.3472 10.3737 46.6102C10.3737 46.9024 10.4322 47.1654 10.5198 47.4284C10.6075 47.6914 10.7536 47.896 10.929 48.0713C11.1043 48.2466 11.3089 48.3928 11.5426 48.5096C11.7764 48.6265 12.0102 48.6558 12.2732 48.6558C12.5362 48.6558 12.77 48.5973 13.0038 48.5096C13.2376 48.422 13.4421 48.2466 13.5882 48.0713C13.7636 47.896 13.8805 47.6622 13.9973 47.4284C14.085 47.1654 14.1435 46.9024 14.1435 46.6102C14.1435 46.3179 14.085 46.0549 13.9973 45.8212C13.9097 45.5874 13.7636 45.3536 13.5882 45.1783C13.4129 45.0029 13.2083 44.8568 13.0038 44.7399C12.7992 44.623 12.5362 44.5938 12.2732 44.5938ZM11.8056 42.7528L10.6952 41.73L11.9518 41.2332L12.8869 42.7528H11.8056Z" fill="#231F20"/>
<path d="M23.4656 49.9416L20.4849 45.7335V49.9416H19.1406V43.3665H20.3972L23.4071 47.6037V43.3665H24.7222V49.9416H23.4656Z" fill="#231F20"/>
<path d="M34.1023 46.6102V49.1233C33.927 49.2402 33.7517 49.3571 33.5471 49.474C33.3426 49.5909 33.138 49.6786 32.9042 49.737C32.6704 49.7954 32.4659 49.8831 32.2321 49.9123C31.9983 49.9416 31.7938 49.9708 31.5892 49.9708C31.1216 49.9708 30.6833 49.8831 30.2742 49.7078C29.8651 49.5324 29.5144 49.2987 29.2222 49.0064C28.9299 48.7142 28.6962 48.3635 28.5208 47.9544C28.3455 47.5453 28.2578 47.107 28.2578 46.6394C28.2578 46.1718 28.3455 45.7335 28.5208 45.3244C28.6962 44.9153 28.9299 44.5646 29.2222 44.2724C29.5144 43.9801 29.8651 43.7464 30.3034 43.571C30.7417 43.3957 31.1509 43.308 31.6476 43.308C31.8814 43.308 32.1152 43.3372 32.349 43.3665C32.5828 43.4249 32.7873 43.4834 33.0211 43.571C33.2549 43.6587 33.4302 43.7464 33.6348 43.8632C33.8393 43.9801 34.0147 44.1262 34.1608 44.2431L33.3718 45.2952C33.138 45.0614 32.875 44.886 32.5828 44.7691C32.2905 44.623 31.9691 44.5646 31.6769 44.5646C31.4139 44.5646 31.1509 44.623 30.9171 44.7107C30.6833 44.8276 30.4787 44.9737 30.3034 45.149C30.1281 45.3244 29.982 45.5582 29.8943 45.7919C29.8066 46.0257 29.7482 46.318 29.7482 46.6102C29.7482 46.9024 29.8066 47.1654 29.8943 47.4284C29.982 47.6914 30.1281 47.896 30.3034 48.0713C30.4787 48.2466 30.6833 48.3928 30.9171 48.5097C31.1509 48.6265 31.4139 48.6558 31.6769 48.6558C31.8522 48.6558 32.0568 48.6265 32.2613 48.5681C32.4659 48.5097 32.6704 48.422 32.875 48.3051V46.581H34.1023V46.6102Z" fill="#231F20"/>
<path d="M45.032 43.2788C45.4704 43.2788 45.8795 43.3372 46.2886 43.4834C46.6977 43.6002 47.0484 43.7756 47.3698 44.0094L46.8438 45.2367C46.6685 45.149 46.5224 45.0322 46.347 44.9737C46.1717 44.886 45.9964 44.8276 45.821 44.7691C45.6457 44.7107 45.4996 44.6523 45.3242 44.623C45.1781 44.5938 45.032 44.5646 44.9151 44.5646C44.6813 44.5646 44.4768 44.5938 44.3599 44.6815C44.2138 44.7691 44.1553 44.9153 44.1553 45.0906C44.1553 45.2952 44.243 45.4413 44.3891 45.5582C44.5352 45.675 44.7398 45.7627 45.0028 45.8504C45.2366 45.9381 45.4996 46.0257 45.7918 46.1134C46.084 46.2011 46.347 46.3179 46.5808 46.4641C46.8146 46.6102 47.0192 46.8147 47.1945 47.0485C47.3698 47.2823 47.4283 47.6037 47.4283 48.0129C47.4283 48.3343 47.3698 48.6265 47.2529 48.8603C47.136 49.0941 46.9607 49.3279 46.7269 49.474C46.4931 49.6201 46.2594 49.7662 45.9671 49.8539C45.6749 49.9416 45.3535 49.9708 45.0028 49.9708C44.4768 49.9708 44.0092 49.8831 43.5124 49.6786C43.0156 49.474 42.6358 49.2402 42.2559 48.9188L42.8111 47.7206C42.9572 47.8668 43.1325 48.0129 43.3371 48.1298C43.5124 48.2466 43.717 48.3635 43.8923 48.4512C44.0677 48.5389 44.2722 48.5973 44.4768 48.6558C44.6521 48.7142 44.8275 48.7142 45.0028 48.7142C45.295 48.7142 45.5288 48.6558 45.6749 48.5389C45.8502 48.422 45.9087 48.2759 45.9087 48.0713C45.9087 47.8668 45.821 47.6914 45.6749 47.6037C45.4996 47.4869 45.3242 47.3992 45.0612 47.3115C44.8275 47.2239 44.5644 47.1362 44.2722 47.0777C43.98 46.9901 43.717 46.8732 43.4832 46.7563C43.2494 46.6102 43.0449 46.4348 42.8695 46.2011C42.6942 45.9673 42.6358 45.6458 42.6358 45.2659C42.6358 44.9737 42.6942 44.7107 42.8111 44.4477C42.928 44.2139 43.0741 44.0094 43.3079 43.834C43.5124 43.6587 43.7754 43.5418 44.0677 43.4541C44.3307 43.3372 44.6813 43.2788 45.032 43.2788Z" fill="#231F20"/>
<path d="M52.2207 48.6558L51.7239 49.9416H50.292L52.9805 43.3665H54.4124L57.0424 49.9416H55.5521L55.0553 48.6558H52.2207ZM53.3604 42.8404C53.3896 42.7528 53.4188 42.6651 53.4773 42.5774L53.5649 42.4898L53.6234 42.4021C53.7403 42.256 53.7987 42.1391 53.7987 42.0514C53.7987 41.8469 53.711 41.7592 53.5357 41.7592C53.448 41.7592 53.3896 41.7884 53.3019 41.8761C53.2435 41.9345 53.185 41.993 53.1266 42.0807L52.6883 41.8177C52.9513 41.2916 53.3311 41.0579 53.8279 41.0579C54.0617 41.0579 54.2955 41.1455 54.4708 41.2916C54.6462 41.4378 54.7338 41.6423 54.7338 41.8469C54.7338 42.0807 54.6462 42.2852 54.4708 42.4606L54.3539 42.5774L54.2371 42.6943C54.1494 42.782 54.0617 42.8989 54.0033 42.9866L53.3604 42.8404ZM53.6526 44.9153L52.659 47.4576H54.6169L53.6526 44.9153Z" fill="#231F20"/>
<path d="M64.6985 49.9416L61.7178 45.7335V49.9416H60.3735V43.3665H61.6301L64.64 47.6037V43.3665H65.9551V49.9416H64.6985Z" fill="#231F20"/>
<path d="M77.3815 43.3665C78.1705 43.3665 78.7842 43.571 79.2225 43.9509C79.6609 44.3308 79.8654 44.9153 79.8654 45.6458C79.8654 46.4056 79.6609 47.0193 79.2225 47.4284C78.7842 47.8375 78.1705 48.0713 77.3815 48.0713H76.1542V49.9416H74.7515V43.3665H77.3815ZM76.1542 46.8147H77.3231C77.703 46.8147 78.0244 46.7271 78.229 46.5225C78.4335 46.3179 78.5504 46.0549 78.5504 45.675C78.5504 45.2952 78.4335 45.0321 78.229 44.8568C78.0244 44.6815 77.703 44.5938 77.3231 44.5938H76.1542V46.8147Z" fill="#231F20"/>
<path d="M87.5801 49.9416V47.3407H84.7748V49.9416H83.3721V43.3665H84.7748V46.1134H87.5801V43.3665H88.9828V49.9416H87.5801Z" fill="#231F20"/>
<path d="M94.2134 48.6558L93.7166 49.9416H92.2847L94.9732 43.3664H96.4051L99.0351 49.9416H97.5447L97.048 48.6558H94.2134ZM96.2005 42.6651L95.6745 41.8761L95.1485 42.6651H94.1549L95.1193 41.2624H96.259L97.2233 42.6651H96.2005ZM95.6453 44.9153L94.6517 47.4576H96.6096L95.6453 44.9153ZM96.9019 41.5546C96.9311 41.467 96.9603 41.3793 97.0187 41.2916L97.1064 41.204L97.1649 41.1163C97.2817 40.9702 97.3402 40.8533 97.3402 40.7656C97.3402 40.5611 97.2525 40.4734 97.0772 40.4734C96.9895 40.4734 96.9311 40.5026 96.8434 40.5903C96.785 40.6487 96.7265 40.7072 96.6681 40.7949L96.2297 40.5319C96.4927 40.0058 96.8726 39.7721 97.3694 39.7721C97.6032 39.7721 97.837 39.8597 98.0123 40.0058C98.1877 40.152 98.2753 40.3565 98.2753 40.5611C98.2753 40.7949 98.1877 40.9994 98.0123 41.1747L97.8954 41.2916L97.7785 41.4085C97.6909 41.4962 97.6032 41.6131 97.5447 41.7008L96.9019 41.5546Z" fill="#231F20"/>
<path d="M107.802 49.9416V45.4997L106.166 49.2694H105.26L103.623 45.4997V49.9416H102.367V43.3665H103.916L105.727 47.37L107.51 43.3665H109.059V49.9416H107.802Z" fill="#231F20"/>
<path d="M120.719 43.308C120.953 43.308 121.157 43.3372 121.391 43.3957C121.625 43.4541 121.829 43.5126 122.034 43.6002C122.238 43.6879 122.443 43.8048 122.647 43.9509C122.823 44.097 122.998 44.2431 123.173 44.4185L122.355 45.4705C122.151 45.2075 121.888 45.0029 121.595 44.8568C121.303 44.7107 121.011 44.623 120.748 44.623C120.485 44.623 120.222 44.6815 120.017 44.7691C119.813 44.8568 119.579 45.0029 119.433 45.2075C119.258 45.3828 119.141 45.5874 119.024 45.8504C118.936 46.0842 118.878 46.3472 118.878 46.6394C118.878 46.9316 118.936 47.1946 119.024 47.4284C119.111 47.6622 119.258 47.896 119.433 48.0713C119.608 48.2466 119.813 48.3928 120.017 48.5097C120.222 48.6265 120.485 48.6558 120.748 48.6558C121.04 48.6558 121.303 48.5973 121.595 48.4512C121.888 48.3051 122.121 48.1298 122.355 47.896L123.173 48.8311C122.852 49.1818 122.472 49.474 122.005 49.6786C121.566 49.8831 121.128 50 120.66 50C120.193 50 119.784 49.9123 119.374 49.737C118.965 49.5617 118.644 49.3279 118.352 49.0357C118.059 48.7434 117.826 48.3928 117.68 47.9836C117.504 47.5745 117.446 47.1362 117.446 46.6686C117.446 46.2011 117.533 45.7627 117.709 45.3536C117.884 44.9445 118.118 44.5938 118.41 44.3016C118.702 44.0094 119.053 43.7756 119.462 43.6002C119.813 43.3957 120.251 43.308 120.719 43.308Z" fill="#231F20"/>
<path d="M127.791 48.6558L127.294 49.9416H125.862L128.55 43.3665H129.982L132.612 49.9416H131.122L130.625 48.6558H127.791ZM129.222 44.9153L128.229 47.4576H130.187L129.222 44.9153Z" fill="#231F20"/>
<path d="M138.632 43.308C139.1 43.308 139.538 43.3957 139.947 43.571C140.356 43.7464 140.707 43.9801 140.999 44.2724C141.291 44.5646 141.525 44.9153 141.701 45.3244C141.876 45.7335 141.964 46.1718 141.964 46.6394C141.964 47.107 141.876 47.5453 141.701 47.9544C141.525 48.3635 141.291 48.7142 140.999 49.0064C140.707 49.2987 140.356 49.5324 139.947 49.7078C139.538 49.8831 139.1 49.9708 138.632 49.9708C138.165 49.9708 137.726 49.8831 137.317 49.7078C136.908 49.5324 136.557 49.2987 136.265 49.0064C135.973 48.7142 135.739 48.3635 135.564 47.9544C135.388 47.5453 135.301 47.107 135.301 46.6394C135.301 46.1718 135.388 45.7335 135.564 45.3244C135.739 44.9153 135.973 44.5646 136.265 44.2724C136.557 43.9801 136.908 43.7464 137.317 43.571C137.726 43.3957 138.165 43.308 138.632 43.308ZM138.661 44.5938C138.398 44.5938 138.165 44.6523 137.931 44.7399C137.697 44.8568 137.492 44.9737 137.317 45.1783C137.142 45.3536 136.996 45.5874 136.908 45.8212C136.82 46.0549 136.762 46.3472 136.762 46.6102C136.762 46.9024 136.82 47.1654 136.908 47.4284C136.996 47.6914 137.142 47.896 137.317 48.0713C137.492 48.2466 137.697 48.3928 137.931 48.5097C138.165 48.6265 138.398 48.6558 138.661 48.6558C138.924 48.6558 139.158 48.5973 139.392 48.5097C139.626 48.3928 139.83 48.2466 139.976 48.0713C140.152 47.896 140.269 47.6622 140.386 47.4284C140.502 47.1946 140.532 46.9024 140.532 46.6102C140.532 46.318 140.473 46.0549 140.386 45.8212C140.298 45.5874 140.152 45.3536 139.976 45.1783C139.801 45.0029 139.597 44.8568 139.392 44.7399C139.158 44.6523 138.924 44.5938 138.661 44.5938Z" fill="#231F20"/>
<path d="M153.156 43.308C153.39 43.308 153.594 43.3372 153.828 43.3957C154.062 43.4541 154.266 43.5126 154.471 43.6002C154.675 43.6879 154.88 43.8048 155.084 43.9509C155.26 44.097 155.435 44.2431 155.61 44.4185L154.792 45.4705C154.588 45.2075 154.325 45.0029 154.032 44.8568C153.74 44.7107 153.448 44.623 153.185 44.623C152.922 44.623 152.659 44.6815 152.454 44.7691C152.25 44.8568 152.016 45.0029 151.87 45.2075C151.695 45.3828 151.578 45.5874 151.461 45.8504C151.373 46.0842 151.315 46.3472 151.315 46.6394C151.315 46.9316 151.373 47.1946 151.461 47.4284C151.548 47.6622 151.695 47.896 151.87 48.0713C152.045 48.2466 152.25 48.3928 152.454 48.5097C152.659 48.6265 152.922 48.6558 153.185 48.6558C153.477 48.6558 153.74 48.5973 154.032 48.4512C154.325 48.3051 154.558 48.1298 154.792 47.896L155.61 48.8311C155.289 49.1818 154.909 49.474 154.442 49.6786C154.003 49.8831 153.565 50 153.097 50C152.63 50 152.221 49.9123 151.812 49.737C151.402 49.5617 151.081 49.3279 150.789 49.0357C150.496 48.7434 150.263 48.3928 150.117 47.9836C149.941 47.5745 149.883 47.1362 149.883 46.6686C149.883 46.2011 149.97 45.7627 150.146 45.3536C150.321 44.9445 150.555 44.5938 150.847 44.3016C151.139 44.0094 151.49 43.7756 151.899 43.6002C152.308 43.4249 152.688 43.308 153.156 43.308Z" fill="#231F20"/>
<path d="M160.257 48.6557L159.76 49.9415H158.328L161.017 43.3664H162.449L165.079 49.9415H163.588L163.091 48.6557H160.257ZM162.244 42.6651L161.718 41.8761L161.192 42.6651H160.198L161.163 41.2624H162.302L163.267 42.6651H162.244ZM161.689 44.9152L160.695 47.4576H162.653L161.689 44.9152ZM163.91 41.6423H162.828L163.764 40.1227L165.02 40.6195L163.91 41.6423Z" fill="#231F20"/>
<path d="M171.011 43.3665C171.8 43.3665 172.414 43.571 172.852 43.9509C173.29 44.3308 173.495 44.9153 173.495 45.6458C173.495 46.4056 173.29 47.0193 172.852 47.4284C172.414 47.8375 171.8 48.0713 171.011 48.0713H169.784V49.9416H168.381V43.3665H171.011ZM169.784 46.8147H170.952C171.332 46.8147 171.654 46.7271 171.858 46.5225C172.063 46.3179 172.18 46.0549 172.18 45.675C172.18 45.2952 172.063 45.0321 171.858 44.8568C171.654 44.6815 171.332 44.5938 170.952 44.5938H169.784V46.8147Z" fill="#231F20"/>
</svg>
