<svg width="570" height="121" viewBox="0 0 570 121" fill="none" xmlns="http://www.w3.org/2000/svg">
<g style="mix-blend-mode:multiply" opacity="0.2">
<path d="M118.759 100.355C114.254 92.2081 111.857 82.8147 111.857 73.3255C111.857 58.1812 117.8 44.4746 127.289 34.7937V0H87.6072L63.9322 79.46H63.6447L39.6821 0H0V120.676H28.3717L27.4132 30.2887L27.7008 30.0012L53.4845 120.676H73.9006L99.5885 30.0012L99.8761 30.2887L98.9176 120.676H127.289V111.762C124.03 108.407 121.155 104.573 118.759 100.355Z" fill="#EC1C24"/>
<path d="M190.742 28.9468V38.5319C188.442 35.1771 185.47 32.3016 181.541 30.1929C175.598 26.8381 168.026 25.7838 160.933 25.7838C136.874 25.7838 117.321 47.0625 117.321 73.2297C117.321 82.1438 119.621 90.5786 123.551 97.6715C131.219 111.474 145.117 120.676 160.933 120.676C170.23 120.676 180.294 118.567 186.141 113.199C187.867 111.57 189.4 109.749 190.742 107.736V120.676H217.868V28.9468H190.742ZM167.738 95.8504C155.086 95.8504 144.83 85.6902 144.83 73.2297C144.83 60.7691 155.086 50.609 167.738 50.609C180.39 50.609 190.646 60.7691 190.646 73.2297C190.646 85.6902 180.39 95.8504 167.738 95.8504Z" fill="#77787B"/>
<path d="M362.985 28.9468V38.5319C360.685 35.1771 357.714 32.3016 353.784 30.1929C347.841 26.8381 340.269 25.7838 333.176 25.7838C309.117 25.7838 289.564 47.0625 289.564 73.2297C289.564 82.1438 291.864 90.5786 295.794 97.6715C303.462 111.474 317.361 120.676 333.176 120.676C342.473 120.676 352.538 118.567 358.385 113.199C360.11 111.57 361.643 109.749 362.985 107.736V120.676H390.111V28.9468H362.985ZM339.981 95.8504C327.329 95.8504 317.073 85.6902 317.073 73.2297C317.073 60.7691 327.329 50.609 339.981 50.609C352.634 50.609 362.889 60.7691 362.889 73.2297C362.889 85.6902 352.634 95.8504 339.981 95.8504Z" fill="#77787B"/>
<path d="M555.645 107.257C546.443 116.267 535.037 120.771 521.331 120.771C507.624 120.771 496.218 116.267 487.112 107.257C477.91 98.2466 473.31 86.9363 473.31 73.3255C473.31 59.6189 477.91 48.3086 487.112 39.2987C496.218 30.2887 507.624 25.7838 521.331 25.7838C535.037 25.7838 546.443 30.2887 555.645 39.2987C564.847 48.3086 569.447 59.6189 569.447 73.3255C569.543 86.9363 564.847 98.2466 555.645 107.257ZM536.763 57.5102C532.641 53.0053 527.465 50.8007 521.331 50.8007C515.292 50.8007 510.116 53.0053 505.995 57.5102C501.969 61.8235 499.956 67.0953 499.956 73.3255C499.956 79.46 501.969 84.7317 505.995 89.1409C510.116 93.55 515.196 95.8504 521.331 95.8504C527.465 95.8504 532.545 93.6458 536.763 89.1409C540.788 84.7317 542.801 79.46 542.801 73.3255C542.801 67.0953 540.788 61.9193 536.763 57.5102Z" fill="#77787B"/>
<path d="M467.846 73.3255C467.846 62.111 470.721 52.1426 476.377 43.7078C475.61 42.0783 474.747 40.5447 473.789 39.107C473.693 38.9153 473.501 38.7236 473.405 38.5319L473.309 38.436C472.063 36.6148 470.626 35.0812 468.996 33.6435C463.245 28.5634 455.577 25.7838 447.142 25.7838C446.95 25.7838 446.663 25.7838 446.471 25.7838C442.254 25.7838 438.036 26.263 434.298 27.6049C434.202 27.6049 434.107 27.7008 434.011 27.7008C433.531 27.8925 433.052 28.0842 432.573 28.2759C432.285 28.3717 431.998 28.5634 431.71 28.6593C431.423 28.851 431.039 28.9468 430.752 29.1385C430.56 29.2344 430.368 29.3302 430.177 29.5219C427.972 30.768 426.055 32.3016 424.33 34.2186C423.851 34.6978 423.467 35.1771 423.084 35.7522C422.413 36.6148 421.742 37.5733 421.071 38.5319H420.783V28.851H395.575V120.676H422.7V76.2969V70.1625C422.7 64.1239 423.755 59.6189 425.768 56.6476C428.164 53.0053 432.381 51.28 438.228 51.28C443.787 51.28 447.717 53.1011 449.826 56.8393C451.551 59.7148 452.414 64.1239 452.414 69.9708V87.7989V120.771H479.54V109.461V106.873C471.776 97.5757 467.846 86.3612 467.846 73.3255Z" fill="#77787B"/>
<path d="M291.097 100.355C289.18 96.9047 287.646 93.2624 286.496 89.4284L273.844 69.9708L287.551 53.8679C291.289 43.6119 297.998 34.8895 306.433 28.851H276.624L250.552 62.8778H250.265V0H223.139V120.676H250.265V77.1595H250.552L276.24 120.676H306.912L303.27 115.116C298.478 111.091 294.26 106.106 291.097 100.355Z" fill="#77787B"/>
</g>
</svg>
