<svg width="274" height="115" viewBox="0 0 274 115" fill="none" xmlns="http://www.w3.org/2000/svg">
<path fill-rule="evenodd" clip-rule="evenodd" d="M30.2599 43.2982C32.8187 43.2982 35.3201 44.057 37.4477 45.4786C39.5753 46.9002 41.2336 48.9208 42.2128 51.2849C43.192 53.649 43.4482 56.2503 42.949 58.76C42.4498 61.2696 41.2176 63.5749 39.4082 65.3843C37.5989 67.1937 35.2936 68.4259 32.7839 68.9251C30.2742 69.4243 27.6729 69.1681 25.3088 68.1889C22.9448 67.2096 20.9242 65.5514 19.5026 63.4238C18.081 61.2962 17.3222 58.7948 17.3222 56.236C17.3222 52.8047 18.6852 49.5139 21.1115 47.0876C23.5378 44.6613 26.8286 43.2982 30.2599 43.2982ZM24.3517 30.0443C27.7957 30.0784 31.1901 30.8687 34.2951 32.3591C37.4001 33.8495 40.1399 36.0037 42.3207 38.6694V0H58.9385V36.3981C44.5633 49.8102 51.6646 72.135 58.9385 76.8213V83.3764H42.3207V74.2481C40.1392 76.9131 37.3993 79.0668 34.2945 80.5571C31.1896 82.0474 27.7955 82.8381 24.3517 82.8733C10.8964 82.8302 0 71.0137 0 56.4372C0 41.8607 10.8964 30.0443 24.3517 30.0443Z" fill="black"/>
<path fill-rule="evenodd" clip-rule="evenodd" d="M84.583 43.6432C87.212 43.6061 89.7927 44.3519 91.9967 45.7855C94.2008 47.2191 95.9286 49.2759 96.9605 51.6943C97.9924 54.1126 98.2817 56.7832 97.7916 59.3665C97.3015 61.9497 96.0541 64.3287 94.2082 66.2011C92.3622 68.0734 90.0011 69.3544 87.4251 69.8812C84.8491 70.4079 82.1747 70.1566 79.7419 69.1591C77.3092 68.1617 75.228 66.4632 73.7632 64.2798C72.2984 62.0963 71.5162 59.5265 71.5159 56.8972C71.5027 55.1687 71.8302 53.4545 72.4799 51.8526C73.1296 50.2508 74.0887 48.7927 75.3023 47.5617C76.5158 46.3308 77.9602 45.3511 79.5526 44.6788C81.1451 44.0064 82.8545 43.6545 84.583 43.6432ZM79.4079 30.188C82.705 30.2097 85.9613 30.9189 88.9687 32.2704C91.9761 33.6218 94.6685 35.5858 96.8738 38.0369V30.188H110.688V84.8139H96.8738V76.3181C94.6692 78.7711 91.9773 80.7373 88.9699 82.0912C85.9626 83.4452 82.7059 84.157 79.4079 84.1814C65.7227 84.1814 54.625 72.0918 54.625 57.1847C54.625 42.2776 65.7227 30.188 79.4079 30.188Z" fill="black"/>
<path fill-rule="evenodd" clip-rule="evenodd" d="M246.837 17.25H263.167V30.9927H273.129V44.0455H263.167V84.8137H246.837V44.0455H240.066V30.9927H246.837V17.25Z" fill="black"/>
<path fill-rule="evenodd" clip-rule="evenodd" d="M179.69 30.188H195.503V35.9381C181.904 50.8021 187.596 72.3793 195.503 78.4888V84.8139H179.69V30.188Z" fill="black"/>
<path fill-rule="evenodd" clip-rule="evenodd" d="M208.441 51.0035H232.879C232.965 45.7039 230.449 42.0861 225.332 40.1502C222.489 39.5368 219.549 39.5368 216.707 40.1502C211.402 41.4727 208.93 45.2822 208.441 51.0035ZM236.113 32.7613V46.921H242.755V59.3412H207.909L207.765 60.3331C208.872 74.8952 224.929 78.3165 230.996 68.4551H242.941V76.994C231.441 89.2704 207.276 85.5472 198.666 76.4046C183.097 59.4562 195.589 37.8071 202.475 34.6014C211.776 27.9313 227.732 30.1882 236.099 32.7613H236.113Z" fill="black"/>
<path fill-rule="evenodd" clip-rule="evenodd" d="M115.001 84.8139H130.814V57.9178L118.739 32.7612L117.488 30.188H115.001V84.8139Z" fill="black"/>
<path d="M176.815 48.4589L159.608 84.8139H147.936L123.512 35.7081L120.752 30.188H139.742L140.475 31.7261L154.059 60.5341L166.106 33.2787L167.443 30.188H176.815V48.4589Z" fill="black"/>
<path fill-rule="evenodd" clip-rule="evenodd" d="M124.82 15.8126C124.418 16.2144 123.906 16.4879 123.348 16.5986C122.791 16.7093 122.213 16.6521 121.687 16.4344C121.162 16.2167 120.713 15.8482 120.398 15.3755C120.082 14.9028 119.913 14.347 119.913 13.7785C119.913 13.2101 120.082 12.6543 120.398 12.1816C120.713 11.7089 121.162 11.3404 121.687 11.1227C122.213 10.905 122.791 10.8478 123.348 10.9585C123.906 11.0692 124.418 11.3427 124.82 11.7445C125.088 12.0115 125.3 12.3286 125.444 12.6776C125.589 13.0266 125.664 13.4007 125.664 13.7785C125.664 14.1564 125.589 14.5305 125.444 14.8795C125.3 15.2285 125.088 15.5456 124.82 15.8126ZM120.752 7.1875C119.046 7.1875 117.379 7.69336 115.96 8.6411C114.542 9.58884 113.436 10.9359 112.784 12.5119C112.131 14.088 111.96 15.8222 112.293 17.4953C112.625 19.1684 113.447 20.7053 114.653 21.9115C115.859 23.1178 117.396 23.9393 119.069 24.2721C120.743 24.6049 122.477 24.4341 124.053 23.7812C125.629 23.1284 126.976 22.0229 127.924 20.6045C128.871 19.1861 129.377 17.5185 129.377 15.8126C129.377 13.5251 128.469 11.3313 126.851 9.71375C125.233 8.09622 123.04 7.1875 120.752 7.1875Z" fill="#E50000"/>
<path fill-rule="evenodd" clip-rule="evenodd" d="M190.946 15.8126C190.544 16.2144 190.031 16.4879 189.474 16.5986C188.916 16.7093 188.338 16.6521 187.813 16.4344C187.288 16.2167 186.839 15.8482 186.523 15.3755C186.207 14.9028 186.039 14.347 186.039 13.7785C186.039 13.2101 186.207 12.6543 186.523 12.1816C186.839 11.7089 187.288 11.3404 187.813 11.1227C188.338 10.905 188.916 10.8478 189.474 10.9585C190.031 11.0692 190.544 11.3427 190.946 11.7445C191.213 12.0115 191.425 12.3286 191.57 12.6776C191.715 13.0266 191.789 13.4007 191.789 13.7785C191.789 14.1564 191.715 14.5305 191.57 14.8795C191.425 15.2285 191.213 15.5456 190.946 15.8126ZM186.878 7.1875C185.172 7.1875 183.504 7.69336 182.086 8.6411C180.667 9.58884 179.562 10.9359 178.909 12.5119C178.256 14.088 178.085 15.8222 178.418 17.4953C178.751 19.1684 179.572 20.7053 180.779 21.9115C181.985 23.1178 183.522 23.9393 185.195 24.2721C186.868 24.6049 188.602 24.4341 190.178 23.7812C191.754 23.1284 193.101 22.0229 194.049 20.6045C194.997 19.1861 195.503 17.5185 195.503 15.8126C195.503 13.5251 194.594 11.3313 192.976 9.71375C191.359 8.09622 189.165 7.1875 186.878 7.1875Z" fill="#E50000"/>
<path fill-rule="evenodd" clip-rule="evenodd" d="M4.19757 111.524V99.3765H0V97.939H10.0195V99.3765H5.8076V111.524H4.19757Z" fill="black"/>
<path fill-rule="evenodd" clip-rule="evenodd" d="M21.1467 111.524V105.198H14.0454V111.524H12.4497V97.939H14.0454V103.761H21.1467V97.939H22.7424V111.524H21.1467Z" fill="black"/>
<path fill-rule="evenodd" clip-rule="evenodd" d="M26.4797 106.765V97.9382H28.0897V106.808C28.0536 107.283 28.12 107.76 28.2845 108.207C28.4491 108.654 28.7078 109.06 29.0433 109.398C29.3787 109.736 29.7829 109.998 30.2286 110.167C30.6742 110.335 31.1508 110.405 31.626 110.373C32.1018 110.405 32.579 110.334 33.0253 110.166C33.4715 109.998 33.8766 109.737 34.2131 109.399C34.5496 109.061 34.8098 108.655 34.976 108.208C35.1422 107.761 35.2107 107.283 35.1767 106.808V97.9382H36.8011C37.8936 97.9382 38.2386 97.2769 38.2386 96.3425V95.3794H39.6762V96.3138C39.6762 97.8951 38.943 99.0738 37.2036 99.0738H36.8586V106.808C36.8878 107.492 36.7706 108.175 36.5148 108.811C36.259 109.447 35.8704 110.02 35.3751 110.494C34.8799 110.967 34.2892 111.33 33.6427 111.557C32.9962 111.784 32.3086 111.87 31.626 111.81C30.9476 111.853 30.2678 111.753 29.6306 111.516C28.9935 111.279 28.4134 110.911 27.928 110.435C27.4426 109.959 27.0628 109.386 26.8133 108.754C26.5637 108.121 26.4501 107.444 26.4797 106.765Z" fill="black"/>
<path fill-rule="evenodd" clip-rule="evenodd" d="M42.0908 105.832C42.0908 108.937 43.7583 110.36 45.929 110.36C48.0996 110.36 49.7671 108.922 49.7671 105.832V103.79C49.7671 100.671 48.0996 99.1039 45.929 99.1039C43.7583 99.1039 42.0908 100.628 42.0908 103.79V105.832ZM45.9002 111.812C42.6227 111.812 40.4951 109.684 40.4951 105.832V103.79C40.4951 99.9233 42.6802 97.652 45.9433 97.652C47.9559 97.652 48.8184 98.6007 49.9828 98.6007C51.1472 98.6007 51.3484 97.9395 51.3484 97.0051V96.1426H52.786V96.9763C52.786 98.802 51.9091 99.722 50.2703 99.722C51.021 100.919 51.415 102.305 51.4059 103.718V105.76C51.3628 109.684 49.1778 111.812 45.9002 111.812Z" fill="black"/>
<path fill-rule="evenodd" clip-rule="evenodd" d="M54.7261 111.524V97.939H56.3217L63.3368 108.807H63.4231V97.939H65.0187V111.524H63.4231L56.3936 100.656H56.3217V111.524H54.7261Z" fill="black"/>
<path fill-rule="evenodd" clip-rule="evenodd" d="M77.2243 102.065C77.1369 101.23 76.7275 100.463 76.0832 99.9263C75.4389 99.3894 74.6105 99.125 73.7742 99.1895C71.7186 99.1895 69.9648 100.526 69.9648 103.847V105.73C69.9648 108.692 71.2729 110.445 73.7311 110.445C74.1671 110.493 74.6083 110.451 75.0273 110.321C75.4462 110.191 75.8342 109.977 76.167 109.691C76.4998 109.405 76.7705 109.055 76.9622 108.66C77.154 108.266 77.2627 107.836 77.2818 107.398V105.96H73.6305V104.523H78.8487V107.398C78.8362 108.036 78.6913 108.665 78.4233 109.244C78.1553 109.824 77.77 110.341 77.2917 110.764C76.8134 111.187 76.2526 111.506 75.6446 111.701C75.0367 111.896 74.3949 111.963 73.7599 111.897C70.1948 111.897 68.3691 109.54 68.3691 105.73V103.761C68.3691 99.8651 70.5685 97.6513 73.8174 97.6513C74.4369 97.6065 75.0592 97.6857 75.6478 97.8842C76.2363 98.0828 76.7794 98.3967 77.2452 98.8076C77.711 99.2185 78.0902 99.7182 78.3606 100.277C78.631 100.837 78.7872 101.444 78.8199 102.065H77.2243Z" fill="black"/>
<path fill-rule="evenodd" clip-rule="evenodd" d="M95.5803 111.524V105.198H88.479V111.524H86.8833V97.939H88.479V103.761H95.5803V97.939H97.1904V111.524H95.5803Z" fill="black"/>
<path d="M102.681 97.939H101.085V111.524H102.681V97.939Z" fill="black"/>
<path fill-rule="evenodd" clip-rule="evenodd" d="M110.69 113.018C110.883 113.029 111.069 113.097 111.224 113.213C111.38 113.328 111.498 113.487 111.564 113.669C111.631 113.851 111.642 114.048 111.598 114.237C111.553 114.425 111.455 114.596 111.314 114.729C111.173 114.862 110.996 114.951 110.806 114.985C110.615 115.019 110.419 114.996 110.241 114.92C110.063 114.843 109.911 114.716 109.805 114.555C109.698 114.393 109.641 114.204 109.641 114.01C109.638 113.874 109.664 113.739 109.717 113.614C109.769 113.489 109.848 113.376 109.946 113.283C110.045 113.189 110.162 113.118 110.29 113.072C110.418 113.027 110.554 113.008 110.69 113.018ZM110.259 94.1436H111.251L113.982 96.573H112.343L110.747 95.1355L109.066 96.573H107.427L110.259 94.1436ZM114.715 111.523H106.579V97.9386H114.715V99.3761H108.189V103.847H114.356V105.284H108.189V110.071H114.715V111.523Z" fill="black"/>
<path fill-rule="evenodd" clip-rule="evenodd" d="M119.559 106.808C119.559 107.75 119.933 108.653 120.599 109.319C121.264 109.985 122.168 110.359 123.109 110.359C124.051 110.359 124.954 109.985 125.62 109.319C126.286 108.653 126.66 107.75 126.66 106.808V97.939H128.256V106.808C128.256 108.173 127.713 109.482 126.748 110.448C125.783 111.413 124.474 111.955 123.109 111.955C121.744 111.955 120.435 111.413 119.47 110.448C118.505 109.482 117.963 108.173 117.963 106.808V97.939H119.559V106.808Z" fill="black"/>
<path fill-rule="evenodd" clip-rule="evenodd" d="M140.173 111.524L135.17 97.939H136.996L140.921 109.612H141.021L144.931 97.939H146.757L141.74 111.524H140.173Z" fill="black"/>
<path fill-rule="evenodd" clip-rule="evenodd" d="M149.157 111.523V97.9383H150.752V111.523H149.157ZM149.502 96.4576L146.785 94.4595H148.697L151.241 96.4576H149.502Z" fill="black"/>
<path fill-rule="evenodd" clip-rule="evenodd" d="M160.384 105.773C160.384 108.935 161.893 110.358 164.164 110.358C164.579 110.415 165 110.384 165.401 110.266C165.802 110.149 166.174 109.947 166.492 109.676C166.809 109.404 167.066 109.068 167.245 108.691C167.423 108.313 167.52 107.901 167.528 107.483H169.124C169.094 108.102 168.938 108.708 168.666 109.264C168.395 109.82 168.012 110.315 167.543 110.718C167.073 111.122 166.527 111.426 165.936 111.611C165.345 111.796 164.723 111.859 164.107 111.796C160.873 111.796 158.788 109.755 158.788 105.787V103.76C158.788 99.8645 160.916 97.6507 164.121 97.6507C164.753 97.6015 165.389 97.6824 165.989 97.8882C166.588 98.094 167.139 98.4204 167.608 98.8474C168.077 99.2743 168.453 99.7927 168.714 100.371C168.974 100.949 169.114 101.574 169.124 102.208H167.528C167.518 101.777 167.42 101.353 167.241 100.961C167.062 100.57 166.806 100.218 166.488 99.9279C166.169 99.6377 165.796 99.4151 165.389 99.2732C164.982 99.1314 164.551 99.0734 164.121 99.1026C161.922 99.1026 160.384 100.669 160.384 103.789V105.773Z" fill="black"/>
<path fill-rule="evenodd" clip-rule="evenodd" d="M177.261 113.018C177.454 113.029 177.64 113.097 177.795 113.213C177.95 113.328 178.069 113.487 178.135 113.669C178.201 113.851 178.213 114.048 178.168 114.237C178.124 114.425 178.025 114.596 177.884 114.729C177.744 114.862 177.567 114.951 177.376 114.985C177.186 115.019 176.989 114.996 176.811 114.92C176.633 114.843 176.482 114.716 176.375 114.555C176.268 114.393 176.211 114.204 176.211 114.01C176.209 113.874 176.235 113.739 176.287 113.614C176.34 113.489 176.418 113.376 176.517 113.283C176.616 113.189 176.733 113.118 176.861 113.072C176.989 113.027 177.125 113.008 177.261 113.018ZM176.887 94.1436H177.893L180.61 96.573H178.971L177.39 95.1355L175.708 96.573H174.112L176.887 94.1436ZM173.437 105.831C173.437 108.936 175.09 110.359 177.246 110.359C179.402 110.359 181.099 108.921 181.099 105.831V103.789C181.099 100.67 179.431 99.103 177.246 99.103C175.061 99.103 173.437 100.67 173.437 103.789V105.831ZM171.827 103.789C171.827 99.9224 174.012 97.6511 177.275 97.6511C180.538 97.6511 182.694 99.9224 182.694 103.789V105.831C182.694 109.683 180.509 111.811 177.232 111.811C173.954 111.811 171.827 109.683 171.827 105.831V103.789Z" fill="black"/>
<path fill-rule="evenodd" clip-rule="evenodd" d="M186.059 111.524V97.939H187.654L194.669 108.807H194.756V97.939H196.351V111.524H194.756L187.726 100.656H187.654V111.524H186.059Z" fill="black"/>
<path fill-rule="evenodd" clip-rule="evenodd" d="M208.556 102.065C208.468 101.23 208.059 100.463 207.415 99.9263C206.77 99.3894 205.942 99.125 205.106 99.1895C203.05 99.1895 201.296 100.526 201.296 103.847V105.73C201.296 108.692 202.604 110.445 205.063 110.445C205.499 110.493 205.94 110.451 206.359 110.321C206.778 110.191 207.166 109.977 207.499 109.691C207.831 109.405 208.102 109.055 208.294 108.66C208.486 108.266 208.594 107.836 208.613 107.398V105.96H204.962V104.523H210.18V107.398C210.168 108.036 210.023 108.665 209.755 109.244C209.487 109.824 209.102 110.341 208.623 110.764C208.145 111.187 207.584 111.506 206.976 111.701C206.368 111.896 205.726 111.963 205.091 111.897C201.526 111.897 199.701 109.54 199.701 105.73V103.761C199.701 99.8651 201.9 97.6513 205.149 97.6513C205.768 97.6065 206.391 97.6857 206.979 97.8842C207.568 98.0828 208.111 98.3967 208.577 98.8076C209.043 99.2185 209.422 99.7182 209.692 100.277C209.963 100.837 210.119 101.444 210.151 102.065H208.556Z" fill="black"/>
<path fill-rule="evenodd" clip-rule="evenodd" d="M223.233 110.086C226.309 110.086 227.646 108.16 227.646 104.738C227.646 101.317 226.395 99.3765 223.233 99.3765H220.588V103.876H223.765V105.313H220.588V110.129L223.233 110.086ZM218.92 111.524V105.27H217.31V103.833H218.92V97.939H223.233C227.646 97.939 229.242 100.814 229.242 104.738C229.242 108.663 227.804 111.524 223.233 111.524H218.92Z" fill="black"/>
<path fill-rule="evenodd" clip-rule="evenodd" d="M240.382 94.4453L237.708 92.0015H239.519L241.632 94.4453H240.382ZM236.63 94.359H238.168L240.799 96.4865H239.059L237.377 95.164L235.681 96.4865H233.87L236.63 94.359ZM233.496 105.859C233.496 108.964 235.164 110.387 237.32 110.387C239.476 110.387 241.158 108.95 241.158 105.859V103.789C241.158 100.67 239.491 99.1028 237.32 99.1028C235.149 99.1028 233.496 100.67 233.496 103.789V105.859ZM231.9 103.818C231.9 99.951 234.071 97.6797 237.349 97.6797C240.626 97.6797 242.768 99.951 242.768 103.818V105.859C242.768 109.712 240.583 111.839 237.305 111.839C234.028 111.839 231.9 109.712 231.9 105.859V103.818Z" fill="black"/>
<path fill-rule="evenodd" clip-rule="evenodd" d="M246.118 111.524V97.939H247.714L254.743 108.807H254.815V97.939H256.425V111.524H254.815L247.786 100.656H247.714V111.524H246.118Z" fill="black"/>
<path fill-rule="evenodd" clip-rule="evenodd" d="M268.63 102.065C268.539 101.232 268.128 100.467 267.485 99.931C266.841 99.3948 266.015 99.1291 265.179 99.1899C263.124 99.1899 261.37 100.527 261.37 103.847V105.731C261.37 108.692 262.678 110.446 265.122 110.446C265.559 110.495 266.002 110.455 266.423 110.326C266.843 110.197 267.233 109.983 267.567 109.697C267.902 109.411 268.174 109.06 268.366 108.664C268.559 108.269 268.668 107.838 268.687 107.398V105.961H265.021V104.523H270.254V107.398C270.239 108.037 270.093 108.666 269.823 109.246C269.554 109.825 269.167 110.343 268.688 110.765C268.208 111.188 267.646 111.507 267.038 111.702C266.429 111.897 265.787 111.963 265.151 111.898C261.6 111.898 259.774 109.54 259.774 105.731V103.761C259.774 99.8655 261.974 97.6517 265.223 97.6517C265.845 97.6009 266.471 97.6756 267.064 97.8716C267.657 98.0675 268.204 98.3806 268.673 98.7923C269.143 99.204 269.524 99.7059 269.796 100.268C270.068 100.83 270.223 101.441 270.254 102.065H268.63Z" fill="black"/>
</svg>
