<svg width="38" height="38" viewBox="0 0 38 38" fill="none" xmlns="http://www.w3.org/2000/svg">
<g filter="url(#filter0_d)">
<rect x="4" y="4" width="30" height="30" rx="15" fill="white"/>
<rect x="4.5" y="4.5" width="29" height="29" rx="14.5" stroke="#2C9E85"/>
</g>
<path fill-rule="evenodd" clip-rule="evenodd" d="M19.0015 4C10.7172 4 4.00146 10.7157 4.00146 19C4.00146 19.1673 4.0042 19.334 4.00964 19.5H5.01023C5.0044 19.3341 5.00146 19.1674 5.00146 19C5.00146 11.268 11.2695 5 19.0015 5V4Z" fill="white"/>
<path d="M10.0755 21.2846H12.3545C12.6801 21.2846 12.9242 21.366 13.087 21.5288C13.2498 21.6916 13.3719 21.9357 13.3719 22.2613C13.3719 22.5869 13.2905 22.8311 13.087 22.9938C12.8835 23.1566 12.6801 23.238 12.3545 23.238H9.0174C8.81392 23.238 8.65114 23.238 8.52905 23.1973C8.36626 23.1973 8.28487 23.1159 8.20348 23.0752C8.12209 22.9938 8.08139 22.9124 8.0407 22.7904C8 22.709 8 22.5462 8 22.3427V15.3023C8 15.0988 8.0407 14.8953 8.08139 14.7325C8.12209 14.5697 8.20348 14.4477 8.28487 14.3256C8.36626 14.2442 8.48835 14.1628 8.61044 14.0814C8.73253 14.0407 8.89531 14 9.0581 14C9.22088 14 9.34297 14.0407 9.46506 14.0814C9.58715 14.1628 9.70924 14.2442 9.79063 14.3256C9.87202 14.407 9.95341 14.5697 9.99411 14.7325C10.0348 14.8953 10.0755 15.0988 10.0755 15.3023V21.2846ZM8.77323 15.0581C8.77323 15.1395 8.81392 15.1802 8.85462 15.2209C8.89531 15.2616 8.97671 15.3023 9.0581 15.3023C9.13949 15.3023 9.18019 15.2616 9.22088 15.2209C9.26158 15.1802 9.30227 15.1395 9.30227 15.0581C9.30227 14.9767 9.30227 14.936 9.22088 14.8953C9.18019 14.8546 9.13949 14.8139 9.0581 14.8139C8.97671 14.8139 8.93601 14.8546 8.85462 14.8953C8.81392 14.936 8.77323 14.9767 8.77323 15.0581ZM8.77323 16.1976C8.77323 16.279 8.81392 16.3197 8.85462 16.3604C8.89531 16.4011 8.97671 16.4418 9.0581 16.4418C9.13949 16.4418 9.18019 16.4011 9.22088 16.3604C9.26158 16.3197 9.30227 16.2383 9.30227 16.1976C9.30227 16.1162 9.30227 16.0348 9.22088 15.9941C9.18019 15.9534 9.13949 15.9127 9.0581 15.9127C8.97671 15.9127 8.93601 15.9534 8.85462 15.9941C8.81392 16.0348 8.77323 16.1162 8.77323 16.1976ZM8.77323 17.3778C8.77323 17.4185 8.81392 17.4999 8.85462 17.5406C8.89531 17.5813 8.97671 17.622 9.0581 17.622C9.13949 17.622 9.18019 17.5813 9.22088 17.5406C9.26158 17.4999 9.30227 17.4185 9.30227 17.3778C9.30227 17.2964 9.30227 17.215 9.22088 17.1743C9.18019 17.1336 9.13949 17.1336 9.0581 17.1336C8.97671 17.1336 8.93601 17.1743 8.85462 17.215C8.81392 17.2557 8.77323 17.2964 8.77323 17.3778ZM8.77323 18.5987C8.77323 18.6394 8.81392 18.7207 8.85462 18.7614C8.89531 18.8021 8.97671 18.8428 9.0581 18.8428C9.13949 18.8428 9.18019 18.8021 9.22088 18.7614C9.26158 18.7207 9.30227 18.6394 9.30227 18.5987C9.30227 18.5173 9.30227 18.4766 9.22088 18.4359C9.18019 18.3952 9.13949 18.3545 9.0581 18.3545C8.97671 18.3545 8.93601 18.3952 8.85462 18.4359C8.81392 18.4766 8.77323 18.558 8.77323 18.5987ZM8.77323 19.8195C8.77323 19.9009 8.81392 19.9416 8.85462 20.023C8.89531 20.0637 8.97671 20.1044 9.0581 20.1044C9.13949 20.1044 9.18019 20.0637 9.22088 20.023C9.26158 19.9823 9.30227 19.9009 9.30227 19.8195C9.30227 19.7382 9.30227 19.6975 9.22088 19.6568C9.18019 19.5754 9.13949 19.5754 9.0581 19.5754C8.97671 19.5754 8.93601 19.6161 8.85462 19.6568C8.81392 19.6975 8.77323 19.7382 8.77323 19.8195ZM8.77323 21.0404C8.77323 21.1218 8.81392 21.1625 8.85462 21.2032C8.89531 21.2439 8.97671 21.2846 9.0581 21.2846C9.13949 21.2846 9.18019 21.2439 9.22088 21.2032C9.26158 21.1625 9.30227 21.0811 9.30227 21.0404C9.30227 20.959 9.30227 20.9183 9.22088 20.8369C9.18019 20.8369 9.13949 20.7962 9.0581 20.7962C8.97671 20.7962 8.93601 20.8369 8.85462 20.8776C8.81392 20.9183 8.77323 20.9997 8.77323 21.0404ZM8.77323 22.2613C8.77323 22.3427 8.81392 22.3834 8.85462 22.4241C8.89531 22.4648 8.97671 22.5055 9.0581 22.5055C9.13949 22.5055 9.18019 22.4648 9.22088 22.4241C9.26158 22.3834 9.30227 22.3427 9.30227 22.2613C9.30227 22.1799 9.30227 22.1392 9.22088 22.0578C9.18019 22.0171 9.13949 22.0171 9.0581 22.0171C8.97671 22.0171 8.93601 22.0578 8.85462 22.0985C8.81392 22.1392 8.77323 22.1799 8.77323 22.2613ZM9.91272 22.2613C9.91272 22.3427 9.95341 22.3834 9.99411 22.4241C10.0348 22.4648 10.0755 22.5055 10.1569 22.5055C10.2383 22.5055 10.279 22.4648 10.3197 22.4241C10.3604 22.3834 10.4011 22.3427 10.4011 22.2613C10.4011 22.1799 10.3604 22.1392 10.3197 22.0578C10.279 22.0171 10.2383 22.0171 10.1569 22.0171C10.0755 22.0171 10.0348 22.0578 9.95341 22.0985C9.91272 22.1392 9.91272 22.1799 9.91272 22.2613ZM11.0115 22.2613C11.0115 22.3427 11.0522 22.3834 11.0929 22.4241C11.1743 22.4648 11.215 22.5055 11.2964 22.5055C11.3778 22.5055 11.4185 22.4648 11.4592 22.4241C11.4999 22.3834 11.5406 22.3427 11.5406 22.2613C11.5406 22.1799 11.4999 22.1392 11.4592 22.0578C11.4185 22.0171 11.3371 22.0171 11.2964 22.0171C11.2557 22.0171 11.1743 22.0578 11.1336 22.0985C11.0522 22.1392 11.0115 22.1799 11.0115 22.2613ZM12.1103 22.2613C12.1103 22.3427 12.151 22.3834 12.1917 22.4241C12.2324 22.4648 12.3138 22.5055 12.3545 22.5055C12.4359 22.5055 12.4766 22.4648 12.5173 22.4241C12.558 22.3834 12.5987 22.3427 12.5987 22.2613C12.5987 22.1799 12.5987 22.1392 12.5173 22.0578C12.5173 22.0171 12.4359 22.0171 12.3545 22.0171C12.2731 22.0171 12.2324 22.0578 12.151 22.0985C12.151 22.1392 12.1103 22.1799 12.1103 22.2613Z" fill="#2C9E85"/>
<path d="M16.6282 21.2846H19.9246C20.2502 21.2846 20.4944 21.366 20.6571 21.5288C20.8199 21.6916 20.9013 21.9357 20.9013 22.2613C20.9013 22.5869 20.8199 22.8311 20.6571 22.9938C20.4944 23.1566 20.2502 23.238 19.9246 23.238H15.5294C15.3667 23.238 15.2039 23.238 15.0818 23.1973C14.9597 23.1973 14.8376 23.1159 14.7562 23.0752C14.6748 22.9938 14.6341 22.9124 14.5934 22.7904C14.5527 22.709 14.5527 22.5462 14.5527 22.3427V14.8953C14.5527 14.7325 14.5527 14.5697 14.5934 14.4477C14.6341 14.3256 14.6748 14.2442 14.7562 14.1628C14.8376 14.0814 14.9597 14.0407 15.0818 14.0407C15.2039 14.0407 15.3667 14 15.5294 14H19.8025C20.1281 14 20.3723 14.0814 20.5351 14.2442C20.6978 14.407 20.7792 14.6511 20.7792 14.936C20.7792 15.2616 20.6978 15.5058 20.5351 15.6685C20.3723 15.872 20.1281 15.9534 19.8025 15.9534H16.6282V17.622H19.5177C19.8432 17.622 20.0874 17.7033 20.2502 17.8661C20.413 18.0289 20.4944 18.2731 20.4944 18.5987C20.4944 18.9242 20.413 19.1684 20.2502 19.3312C20.0874 19.494 19.8432 19.5754 19.5177 19.5754H16.6282V21.2846ZM15.326 14.9767C15.326 15.0581 15.3667 15.0988 15.4074 15.1395C15.448 15.2209 15.5294 15.2209 15.6108 15.2209C15.6922 15.2209 15.7329 15.1802 15.7736 15.1395C15.8143 15.0988 15.855 15.0174 15.855 14.9767C15.855 14.8139 15.7736 14.7325 15.6108 14.7325C15.5294 14.7325 15.4887 14.7732 15.4074 14.8139C15.3667 14.8139 15.326 14.8953 15.326 14.9767ZM15.326 15.9941C15.326 16.0755 15.3667 16.1162 15.4074 16.1976C15.448 16.2383 15.5294 16.2383 15.6108 16.2383C15.6922 16.2383 15.7329 16.1976 15.7736 16.1569C15.8143 16.1162 15.855 16.0348 15.855 15.9534C15.855 15.7906 15.7736 15.7092 15.6108 15.7092C15.5294 15.7092 15.4887 15.7499 15.4074 15.7906C15.3667 15.872 15.326 15.9127 15.326 15.9941ZM15.326 17.0115C15.326 17.0522 15.3667 17.1336 15.4074 17.1743C15.448 17.2557 15.5294 17.2557 15.6108 17.2557C15.6922 17.2557 15.7329 17.215 15.7736 17.1743C15.8143 17.1336 15.855 17.0522 15.855 17.0115C15.855 16.8487 15.7736 16.7673 15.6108 16.7673C15.5294 16.7673 15.4887 16.808 15.4074 16.8487C15.3667 16.8894 15.326 16.9301 15.326 17.0115ZM15.326 18.0696C15.326 18.1103 15.3667 18.1917 15.4074 18.2324C15.448 18.2731 15.5294 18.3138 15.6108 18.3138C15.6922 18.3138 15.7329 18.2731 15.7736 18.2324C15.8143 18.1917 15.855 18.1103 15.855 18.0696C15.855 17.9068 15.7736 17.8254 15.6108 17.8254C15.5294 17.8254 15.4887 17.8661 15.4074 17.9068C15.3667 17.9475 15.326 17.9882 15.326 18.0696ZM15.326 19.087C15.326 19.1277 15.3667 19.2091 15.4074 19.2498C15.448 19.3312 15.5294 19.3312 15.6108 19.3312C15.6922 19.3312 15.7329 19.2905 15.7736 19.2498C15.8143 19.2091 15.8143 19.1684 15.8143 19.087C15.8143 18.9242 15.7329 18.8428 15.5701 18.8428C15.4887 18.8428 15.448 18.8835 15.3667 18.9242C15.3667 18.9649 15.326 19.0056 15.326 19.087ZM15.326 20.1451C15.326 20.1858 15.3667 20.2672 15.4074 20.3079C15.448 20.3893 15.5294 20.3893 15.6108 20.3893C15.6922 20.3893 15.7329 20.3486 15.7736 20.3079C15.8143 20.2672 15.855 20.1858 15.855 20.1451C15.855 19.9823 15.7736 19.8602 15.6108 19.8602C15.5294 19.8602 15.4887 19.9009 15.4074 19.9416C15.3667 20.023 15.326 20.0637 15.326 20.1451ZM15.326 21.2032C15.326 21.2439 15.3667 21.3253 15.4074 21.366C15.448 21.4474 15.5294 21.4474 15.6108 21.4474C15.6922 21.4474 15.7329 21.4067 15.7736 21.366C15.8143 21.3253 15.855 21.2439 15.855 21.2032C15.855 21.0404 15.7736 20.9183 15.6108 20.9183C15.5294 20.9183 15.4887 20.959 15.4074 20.9997C15.3667 21.0811 15.326 21.1218 15.326 21.2032ZM15.326 22.2613C15.326 22.3427 15.3667 22.3834 15.4074 22.4241C15.448 22.4648 15.5294 22.5055 15.6108 22.5055C15.6922 22.5055 15.7329 22.4648 15.7736 22.4241C15.8143 22.3834 15.855 22.3427 15.855 22.2613C15.855 22.0985 15.7736 22.0171 15.6108 22.0171C15.5294 22.0171 15.4887 22.0578 15.4074 22.0985C15.3667 22.1392 15.326 22.1799 15.326 22.2613ZM16.3434 14.9767C16.3434 15.0581 16.3841 15.0988 16.4248 15.1395C16.4655 15.1802 16.5468 15.2209 16.6282 15.2209C16.7096 15.2209 16.791 15.1802 16.791 15.1395C16.8317 15.0988 16.8724 15.0174 16.8724 14.9767C16.8724 14.8139 16.791 14.7325 16.6282 14.7325C16.5468 14.7325 16.5061 14.7732 16.4248 14.8139C16.3841 14.8139 16.3434 14.8953 16.3434 14.9767ZM16.3841 18.5987C16.3841 18.6394 16.4248 18.7207 16.4654 18.7614C16.5061 18.8021 16.5875 18.8428 16.6689 18.8428C16.7503 18.8428 16.791 18.8021 16.8317 18.7614C16.8724 18.7207 16.9131 18.6394 16.9131 18.5987C16.9131 18.4359 16.8317 18.3545 16.6689 18.3545C16.5875 18.3545 16.5468 18.3952 16.4654 18.4359C16.4248 18.4359 16.3841 18.5173 16.3841 18.5987ZM16.4248 22.2613C16.4248 22.3427 16.4655 22.3834 16.5061 22.4241C16.5468 22.4648 16.6282 22.5055 16.7096 22.5055C16.791 22.5055 16.8317 22.4648 16.8724 22.4241C16.9131 22.3834 16.9538 22.3427 16.9538 22.2613C16.9538 22.0985 16.8724 22.0171 16.7096 22.0171C16.6282 22.0171 16.5875 22.0578 16.5061 22.0985C16.4248 22.1392 16.4248 22.1799 16.4248 22.2613ZM17.4015 18.5987C17.4015 18.6394 17.4422 18.7207 17.4829 18.7614C17.5235 18.8021 17.6049 18.8428 17.6456 18.8428C17.727 18.8428 17.8084 18.8021 17.8491 18.7614C17.8898 18.7207 17.9305 18.6394 17.9305 18.5987C17.9305 18.4359 17.8491 18.3545 17.6863 18.3545C17.6049 18.3545 17.5642 18.3952 17.4829 18.4359C17.4015 18.4359 17.4015 18.5173 17.4015 18.5987ZM17.4015 14.9767C17.4015 15.0581 17.4422 15.0988 17.4829 15.1395C17.5235 15.1802 17.6049 15.2209 17.6863 15.2209C17.7677 15.2209 17.8491 15.1802 17.8491 15.1395C17.8898 15.0988 17.8898 15.0174 17.8898 14.9767C17.8898 14.8139 17.8084 14.7325 17.6456 14.7325C17.5642 14.7325 17.5235 14.7732 17.4422 14.8139C17.4422 14.8139 17.4015 14.8953 17.4015 14.9767ZM17.5235 22.2613C17.5235 22.3427 17.5642 22.3834 17.6049 22.4241C17.6456 22.4648 17.727 22.5055 17.8084 22.5055C17.8898 22.5055 17.9305 22.4648 17.9712 22.4241C18.0119 22.3834 18.0526 22.3427 18.0526 22.2613C18.0526 22.0985 17.9712 22.0171 17.8084 22.0171C17.727 22.0171 17.6863 22.0578 17.6049 22.0985C17.5642 22.1392 17.5235 22.1799 17.5235 22.2613ZM18.3782 18.5987C18.3782 18.6394 18.4189 18.7207 18.4596 18.7614C18.5003 18.8021 18.541 18.8428 18.6223 18.8428C18.7037 18.8428 18.7444 18.8021 18.8258 18.7614C18.8665 18.7207 18.9072 18.6394 18.9072 18.5987C18.9072 18.4359 18.8258 18.3545 18.6223 18.3545C18.541 18.3545 18.5003 18.3952 18.4596 18.4359C18.4189 18.4359 18.3782 18.5173 18.3782 18.5987ZM18.4596 14.9767C18.4596 15.0581 18.5003 15.0988 18.541 15.1395C18.5816 15.1802 18.663 15.2209 18.7037 15.2209C18.7851 15.2209 18.8258 15.1802 18.9072 15.1395C18.9479 15.0988 18.9886 15.0174 18.9886 14.9767C18.9886 14.8139 18.9072 14.7325 18.7444 14.7325C18.663 14.7325 18.6223 14.7732 18.5816 14.8139C18.5003 14.8139 18.4596 14.8953 18.4596 14.9767ZM18.5816 22.2613C18.5816 22.3427 18.6223 22.3834 18.663 22.4241C18.7037 22.4648 18.7851 22.5055 18.8665 22.5055C19.0293 22.5055 19.1107 22.4241 19.1107 22.2613C19.1107 22.0985 19.0293 22.0171 18.8665 22.0171C18.7851 22.0171 18.7444 22.0578 18.663 22.0985C18.6223 22.1392 18.5816 22.1799 18.5816 22.2613ZM19.3549 18.5987C19.3549 18.6394 19.3956 18.7207 19.4363 18.7614C19.477 18.8021 19.5177 18.8428 19.599 18.8428C19.6804 18.8428 19.7618 18.8021 19.8025 18.7614C19.8432 18.7207 19.8839 18.6394 19.8839 18.5987C19.8839 18.4359 19.8025 18.3545 19.599 18.3545C19.5584 18.3545 19.477 18.3952 19.4363 18.4359C19.3549 18.4359 19.3549 18.5173 19.3549 18.5987ZM19.5177 14.9767C19.5177 15.0581 19.5584 15.0988 19.599 15.1395C19.6397 15.1802 19.6804 15.2209 19.7618 15.2209C19.8432 15.2209 19.8839 15.1802 19.9653 15.1395C20.006 15.0988 20.0467 15.0174 20.0467 14.9767C20.0467 14.8139 19.9653 14.7325 19.8025 14.7325C19.7211 14.7325 19.6804 14.7732 19.6397 14.8139C19.5177 14.8139 19.5177 14.8953 19.5177 14.9767ZM19.6397 22.2613C19.6397 22.3427 19.6804 22.3834 19.7211 22.4241C19.7618 22.4648 19.8025 22.5055 19.8839 22.5055C20.0467 22.5055 20.1281 22.4241 20.1281 22.2613C20.1281 22.0985 20.0467 22.0171 19.8839 22.0171C19.8025 22.0171 19.7618 22.0578 19.6804 22.0985C19.6397 22.1392 19.6397 22.1799 19.6397 22.2613Z" fill="#2C9E85"/>
<path d="M23.22 23.238C23.0573 23.238 22.9352 23.238 22.8131 23.1973C22.691 23.1973 22.5689 23.1159 22.4875 23.0752C22.4061 22.9938 22.3247 22.9124 22.284 22.7904C22.2433 22.709 22.2026 22.5462 22.2026 22.3427V14.8953C22.2026 14.7325 22.2433 14.5697 22.284 14.4477C22.3247 14.3256 22.4061 14.2442 22.4875 14.1628C22.5689 14.0814 22.691 14.0407 22.8131 14.0407C22.9352 14.0407 23.098 14 23.22 14H24.8479C26.3943 14 27.6152 14.4477 28.4291 15.3023C28.8361 15.7499 29.1617 16.2383 29.3652 16.808C29.5686 17.3778 29.6907 18.0289 29.7314 18.7614C29.7314 20.0637 29.3245 21.1218 28.5105 21.9764C27.6966 22.8311 26.3943 23.238 24.6444 23.238H23.22ZM23.0166 14.9767C23.0166 15.0581 23.0573 15.0988 23.098 15.1395C23.1386 15.1802 23.22 15.2209 23.3014 15.2209C23.3828 15.2209 23.4235 15.1802 23.4642 15.1395C23.5049 15.0988 23.5456 15.0174 23.5456 14.9767C23.5456 14.8953 23.5456 14.8546 23.4642 14.8139C23.3828 14.7325 23.3421 14.6918 23.2607 14.6918C23.1793 14.6918 23.1386 14.7325 23.0573 14.7732C23.0166 14.8139 23.0166 14.8953 23.0166 14.9767ZM23.0166 15.9534C23.0166 16.0348 23.0573 16.0755 23.098 16.1569C23.1386 16.1976 23.22 16.2383 23.3014 16.2383C23.3828 16.2383 23.4235 16.1976 23.4642 16.1569C23.5049 16.0755 23.5049 16.0348 23.5049 15.9534C23.5049 15.872 23.5049 15.8313 23.4235 15.7906C23.3828 15.7092 23.3421 15.7092 23.2607 15.7092C23.1793 15.7092 23.1386 15.7499 23.0573 15.7906C23.0166 15.8313 23.0166 15.872 23.0166 15.9534ZM23.0166 16.9708C23.0166 17.0115 23.0573 17.0929 23.098 17.1336C23.1386 17.1743 23.1793 17.215 23.2607 17.215C23.3421 17.215 23.3828 17.1743 23.4235 17.1336C23.4642 17.0929 23.5049 17.0115 23.5049 16.9708C23.5049 16.8894 23.5049 16.8487 23.4235 16.808C23.3828 16.7266 23.3421 16.6859 23.2607 16.6859C23.1793 16.6859 23.1386 16.7266 23.0573 16.7673C22.9759 16.808 23.0166 16.8894 23.0166 16.9708ZM23.0166 17.9882C23.0166 18.0696 23.0573 18.1103 23.098 18.151C23.1386 18.1917 23.22 18.2324 23.3014 18.2324C23.3828 18.2324 23.4235 18.1917 23.4642 18.151C23.5049 18.1103 23.5049 18.0696 23.5049 17.9882C23.5049 17.9068 23.5049 17.8661 23.4235 17.8254C23.3828 17.744 23.3421 17.7033 23.2607 17.7033C23.1793 17.7033 23.1386 17.744 23.0573 17.7847C23.0166 17.8254 23.0166 17.9068 23.0166 17.9882ZM23.0166 19.0463C23.0166 19.087 23.0573 19.1684 23.098 19.2091C23.1386 19.2498 23.22 19.2905 23.3014 19.2905C23.3828 19.2905 23.4235 19.2498 23.4642 19.2091C23.5049 19.1684 23.5456 19.087 23.5456 19.0463C23.5456 18.9649 23.5456 18.8835 23.4642 18.8428C23.3828 18.8021 23.3421 18.8021 23.2607 18.8021C23.1793 18.8021 23.1386 18.8428 23.0573 18.8835C23.0166 18.9242 23.0166 18.9649 23.0166 19.0463ZM23.0166 20.1044C23.0166 20.1451 23.0573 20.2265 23.098 20.2672C23.1386 20.3079 23.22 20.3486 23.3014 20.3486C23.3828 20.3486 23.4235 20.3079 23.4642 20.2672C23.5049 20.2265 23.5456 20.1451 23.5456 20.1044C23.5456 20.023 23.5456 19.9416 23.4642 19.9009C23.3828 19.8602 23.3421 19.8195 23.2607 19.8195C23.1793 19.8195 23.1386 19.8602 23.0573 19.9009C23.0166 19.9416 23.0166 20.023 23.0166 20.1044ZM23.0166 21.1625C23.0166 21.2439 23.0573 21.2846 23.098 21.3253C23.1386 21.366 23.22 21.4067 23.3014 21.4067C23.3828 21.4067 23.4235 21.4067 23.4642 21.3253C23.5049 21.2846 23.5049 21.2439 23.5049 21.1625C23.5049 21.0811 23.5049 20.9997 23.4235 20.959C23.3828 20.9183 23.3421 20.9183 23.2607 20.9183C23.1793 20.9183 23.1386 20.959 23.0573 20.9997C23.0166 21.0404 23.0166 21.0811 23.0166 21.1625ZM23.0166 22.2206C23.0166 22.302 23.0573 22.3427 23.098 22.3834C23.1386 22.4241 23.1793 22.4648 23.2607 22.4648C23.3421 22.4648 23.3828 22.4241 23.4235 22.3834C23.4642 22.3427 23.5049 22.302 23.5049 22.2206C23.5049 22.1392 23.5049 22.0985 23.4235 22.0171C23.3828 21.9764 23.3421 21.9357 23.2607 21.9357C23.1793 21.9357 23.1386 21.9764 23.0573 22.0171C22.9759 22.0578 23.0166 22.1392 23.0166 22.2206ZM24.1154 14.936C24.1154 15.0174 24.1561 15.0581 24.1967 15.1395C24.2374 15.1802 24.3188 15.2209 24.4002 15.2209C24.4816 15.2209 24.5223 15.1802 24.563 15.1395C24.6037 15.0988 24.6444 15.0174 24.6444 14.936C24.6444 14.8546 24.6444 14.8139 24.563 14.7732C24.5223 14.6918 24.4409 14.6918 24.3595 14.6918C24.2781 14.6918 24.2374 14.6918 24.1967 14.7325C24.1154 14.8139 24.1154 14.8546 24.1154 14.936ZM24.1154 22.2613C24.1154 22.3427 24.1561 22.3834 24.1967 22.4241C24.2374 22.4648 24.3188 22.5055 24.3595 22.5055C24.4002 22.5055 24.5223 22.4648 24.563 22.4241C24.6037 22.3834 24.6444 22.3427 24.6444 22.2613C24.6444 22.1799 24.6444 22.1392 24.563 22.0578C24.5223 22.0171 24.4409 22.0171 24.3595 22.0171C24.2781 22.0171 24.2374 22.0171 24.1967 22.0578C24.1154 22.1392 24.1154 22.1799 24.1154 22.2613ZM24.3188 21.2846H24.8479C25.7839 21.2846 26.4757 21.0811 26.8827 20.6335C27.371 20.2265 27.5745 19.6161 27.5745 18.8021C27.5745 17.8661 27.371 17.1743 26.9234 16.6859C26.4757 16.1976 25.8246 15.9534 24.8886 15.9534H24.3188V21.2846ZM25.1735 14.9767C25.1735 15.0581 25.2141 15.0988 25.2548 15.1395C25.2955 15.1802 25.3769 15.2209 25.4583 15.2209C25.5397 15.2209 25.5397 15.1802 25.5804 15.1395C25.6211 15.0988 25.6618 15.0174 25.6618 14.9767C25.6618 14.8953 25.6211 14.8546 25.5804 14.8139C25.5397 14.7325 25.499 14.6918 25.4176 14.6918C25.3362 14.6918 25.2955 14.7325 25.2141 14.7732C25.1735 14.8139 25.1735 14.8953 25.1735 14.9767ZM25.2141 22.2206C25.2141 22.302 25.2548 22.3427 25.2955 22.3834C25.3362 22.4241 25.4176 22.4648 25.4583 22.4648C25.499 22.4648 25.6211 22.4648 25.6618 22.4241C25.7025 22.3834 25.7432 22.3427 25.7432 22.2613C25.7432 22.1799 25.7025 22.1392 25.6618 22.0578C25.6211 22.0171 25.5397 21.9764 25.4583 21.9764C25.3769 21.9764 25.3362 22.0171 25.2955 22.0578C25.2548 22.0985 25.2141 22.1799 25.2141 22.2206ZM26.1909 15.1802C26.1909 15.2209 26.2316 15.3023 26.2722 15.343C26.3129 15.3837 26.3943 15.4244 26.4757 15.4244C26.5571 15.4244 26.6385 15.3837 26.6792 15.343C26.7199 15.3023 26.7606 15.2209 26.7606 15.1802C26.7606 15.0988 26.7199 15.0174 26.6792 14.9767C26.5978 14.936 26.5164 14.8953 26.435 14.8953C26.3536 14.8953 26.3129 14.936 26.2316 14.9767C26.1909 15.0174 26.1909 15.0988 26.1909 15.1802ZM26.3129 22.0171C26.3129 22.0985 26.3536 22.1392 26.3943 22.2206C26.4757 22.2613 26.5164 22.302 26.5978 22.302C26.6792 22.302 26.7199 22.2613 26.7606 22.2206C26.8013 22.1799 26.842 22.0985 26.842 22.0171C26.842 21.9357 26.842 21.8543 26.7606 21.8543C26.7199 21.8137 26.6792 21.773 26.5978 21.773C26.5164 21.773 26.4757 21.773 26.3943 21.8137C26.3129 21.8543 26.3129 21.9357 26.3129 22.0171ZM27.1269 15.6685C27.1269 15.7499 27.1676 15.7906 27.2083 15.8313C27.249 15.872 27.2896 15.9127 27.371 15.9127C27.4524 15.9127 27.5338 15.872 27.5745 15.8313C27.6152 15.7906 27.6559 15.7092 27.6559 15.6685C27.6559 15.5871 27.6152 15.5058 27.5745 15.4651C27.4931 15.4244 27.4524 15.3837 27.371 15.3837C27.2896 15.3837 27.249 15.4244 27.2083 15.4651C27.1269 15.5058 27.1269 15.5871 27.1269 15.6685ZM27.249 21.4881C27.249 21.5695 27.2896 21.6102 27.3303 21.6916C27.4117 21.7323 27.4524 21.7323 27.5338 21.7323C27.6152 21.7323 27.6966 21.6916 27.7373 21.6509C27.778 21.6102 27.8187 21.5288 27.8187 21.4474C27.8187 21.2846 27.7373 21.2032 27.5745 21.2032C27.4931 21.2032 27.4524 21.2032 27.371 21.2439C27.2896 21.3253 27.249 21.4067 27.249 21.4881ZM27.8594 16.4418C27.8594 16.4825 27.9001 16.5639 27.9408 16.6046C27.9815 16.6452 28.0629 16.6859 28.1443 16.6859C28.2257 16.6859 28.2664 16.6452 28.3071 16.6046C28.3477 16.5639 28.3884 16.4825 28.3884 16.4418C28.3884 16.3604 28.3477 16.3197 28.3071 16.279C28.2257 16.2383 28.185 16.1976 28.1036 16.1976C28.0222 16.1976 27.9815 16.2383 27.9001 16.279C27.8594 16.3197 27.8594 16.3604 27.8594 16.4418ZM27.9815 20.6742C27.9815 20.7149 28.0222 20.7962 28.0629 20.8369C28.1036 20.8776 28.185 20.9183 28.2257 20.9183C28.3071 20.9183 28.3477 20.8776 28.3884 20.8369C28.4291 20.7962 28.4698 20.7149 28.4698 20.6742C28.4698 20.5928 28.4291 20.5114 28.3884 20.4707C28.3884 20.43 28.3071 20.3893 28.2257 20.3893C28.185 20.3893 28.1036 20.43 28.0629 20.4707C28.0222 20.5114 27.9815 20.5928 27.9815 20.6742ZM28.3071 17.4592C28.3071 17.5406 28.3477 17.5813 28.3884 17.622C28.4291 17.6626 28.5105 17.7033 28.5512 17.7033C28.6326 17.7033 28.6733 17.6626 28.7547 17.622C28.7954 17.5813 28.7954 17.4999 28.7954 17.4592C28.7954 17.3778 28.7547 17.3371 28.714 17.2964C28.6733 17.215 28.6326 17.1743 28.5512 17.1743C28.4698 17.1743 28.4291 17.215 28.3884 17.2557C28.3071 17.2964 28.3071 17.3778 28.3071 17.4592ZM28.3884 19.6568C28.3884 19.6975 28.4291 19.7788 28.4698 19.8195C28.5105 19.8602 28.5512 19.9009 28.6326 19.9009C28.714 19.9009 28.7547 19.8602 28.7954 19.8195C28.8361 19.7788 28.8768 19.6975 28.8768 19.6568C28.8768 19.5754 28.8361 19.5347 28.7954 19.494C28.7547 19.4126 28.714 19.3719 28.6326 19.3719C28.5512 19.3719 28.5105 19.4126 28.4291 19.4533C28.3884 19.494 28.3884 19.5754 28.3884 19.6568ZM28.4698 18.558C28.4698 18.5987 28.5105 18.6801 28.5512 18.7207C28.5919 18.7614 28.6733 18.8021 28.714 18.8021C28.7547 18.8021 28.8361 18.7614 28.8768 18.7207C28.9175 18.6801 28.9582 18.5987 28.9582 18.558C28.9582 18.4766 28.9175 18.4359 28.8768 18.3952C28.8768 18.3138 28.7954 18.3138 28.714 18.3138C28.6326 18.3138 28.5919 18.3138 28.5512 18.3545C28.4698 18.3952 28.4698 18.4766 28.4698 18.558Z" fill="#2C9E85"/>
<defs>
<filter id="filter0_d" x="0" y="0" width="38" height="38" filterUnits="userSpaceOnUse" color-interpolation-filters="sRGB">
<feFlood flood-opacity="0" result="BackgroundImageFix"/>
<feColorMatrix in="SourceAlpha" type="matrix" values="0 0 0 0 0 0 0 0 0 0 0 0 0 0 0 0 0 0 127 0"/>
<feOffset/>
<feGaussianBlur stdDeviation="2"/>
<feColorMatrix type="matrix" values="0 0 0 0 0 0 0 0 0 0 0 0 0 0 0 0 0 0 0.1 0"/>
<feBlend mode="normal" in2="BackgroundImageFix" result="effect1_dropShadow"/>
<feBlend mode="normal" in="SourceGraphic" in2="effect1_dropShadow" result="shape"/>
</filter>
</defs>
</svg>
